<svg width="602" height="400" viewBox="0 0 602 400" fill="none" xmlns="http://www.w3.org/2000/svg">
<path d="M157.377 225.536C155.808 228.334 152.372 228.719 146.867 228.188C142.727 227.786 138.952 227.476 134.811 225.22C131.914 223.642 129.62 221.508 127.945 219.434C126.131 217.188 123.598 214.624 124.84 212.077C126.546 208.578 136.412 205.632 145.992 210.45C156.516 215.746 158.912 222.801 157.377 225.536Z" fill="#F9FAFB"/>
<path d="M471.945 207.078C465.53 211.859 455.351 209.069 455.351 209.069C455.351 209.069 455.577 198.528 461.996 193.751C468.411 188.969 478.586 191.755 478.586 191.755C478.586 191.755 478.36 202.297 471.945 207.078V207.078Z" fill="#F9FAFB"/>
<path d="M144.991 116.243C151.089 123.296 163.376 122.678 163.376 122.678C163.376 122.678 165.77 110.625 159.666 103.575C153.569 96.5216 141.287 97.1356 141.287 97.1356C141.287 97.1356 138.894 109.19 144.991 116.243Z" fill="#F9FAFB"/>
<path d="M294.255 340.517C291.349 340.517 288.993 338.163 288.993 335.259C288.993 332.354 291.349 330 294.255 330C297.161 330 299.517 332.354 299.517 335.259C299.517 338.163 297.161 340.517 294.255 340.517Z" fill="#E5E7EB"/>
<path d="M340.137 297.561C336.943 297.561 334.353 294.973 334.353 291.781C334.353 288.588 336.943 286 340.137 286C343.331 286 345.921 288.588 345.921 291.781C345.921 294.973 343.331 297.561 340.137 297.561Z" fill="#E5E7EB"/>
<path d="M453.754 120.427C451.176 120.427 449.085 118.338 449.085 115.76C449.085 113.183 451.176 111.094 453.754 111.094C456.333 111.094 458.424 113.183 458.424 115.76C458.424 118.338 456.333 120.427 453.754 120.427Z" fill="#E5E7EB"/>
<path d="M128.879 140.242C129.704 143.32 127.876 146.485 124.796 147.31C121.715 148.135 118.549 146.308 117.723 143.229C116.898 140.15 118.726 136.986 121.806 136.161C124.887 135.336 128.053 137.163 128.879 140.242Z" fill="#E5E7EB"/>
<path d="M215.296 90.689C211.053 90.689 207.614 87.2514 207.614 83.011C207.614 78.7706 211.053 75.333 215.296 75.333C219.539 75.333 222.979 78.7706 222.979 83.011C222.979 87.2514 219.539 90.689 215.296 90.689Z" fill="#E5E7EB"/>
<path d="M497.416 273.128C494.152 273.128 491.506 271.013 491.506 268.403C491.506 265.794 494.152 263.679 497.416 263.679C500.679 263.679 503.325 265.794 503.325 268.403C503.325 271.013 500.679 273.128 497.416 273.128Z" fill="#E5E7EB"/>
<path d="M156.551 314.483C156.551 319.169 152.75 322.967 148.062 322.967C143.375 322.967 139.574 319.169 139.574 314.483C139.574 309.798 143.375 306 148.062 306C152.75 306 156.551 309.798 156.551 314.483Z" fill="#E5E7EB"/>
<path d="M440.761 261.322H440.916C441.831 274.286 451.478 274.486 451.478 274.486C451.478 274.486 440.841 274.693 440.841 289.672C440.841 274.693 430.204 274.486 430.204 274.486C430.204 274.486 439.846 274.286 440.761 261.322V261.322Z" fill="#E5E7EB"/>
<path d="M286.067 231.059H386.297M207.315 316.919H407.774C423.59 316.919 436.412 304.105 436.412 288.298V87.9537C436.412 72.147 423.59 59.333 407.774 59.333H264.589C248.773 59.333 235.952 72.147 235.952 87.9537V288.298C235.952 304.105 223.131 316.919 207.315 316.919C191.498 316.919 178.678 304.105 178.678 288.298V130.885C178.678 115.078 191.498 102.264 207.315 102.264H235.952L207.315 316.919ZM286.067 116.575H386.297H286.067ZM286.067 173.816H386.297H286.067Z" stroke="#E5E7EB" stroke-width="4" stroke-linecap="round" stroke-linejoin="round"/>
<path fill-rule="evenodd" clip-rule="evenodd" d="M182.048 207.695C182.048 240.894 208.974 267.805 242.192 267.805C275.409 267.805 302.335 240.894 302.335 207.695C302.335 174.497 275.409 147.586 242.192 147.586C208.974 147.586 182.048 174.497 182.048 207.695Z" fill="#F9FAFB" stroke="#08CF7C" stroke-width="20.082" stroke-linecap="round" stroke-linejoin="round"/>
<path d="M168.925 280.92L194.623 255.236" stroke="#08CF7C" stroke-width="20.082" stroke-linecap="round" stroke-linejoin="round"/>
<path fill-rule="evenodd" clip-rule="evenodd" d="M361.702 280.472V252.76C361.703 248.179 362.905 243.678 365.19 239.707C367.474 235.736 370.761 232.433 374.722 230.128L400.925 214.886C404.927 212.56 409.475 211.334 414.105 211.334C418.735 211.334 423.283 212.56 427.285 214.886L453.487 230.128C457.45 232.432 460.738 235.734 463.024 239.706C465.309 243.677 466.512 248.178 466.513 252.76V280.472C466.512 285.053 465.31 289.554 463.025 293.525C460.741 297.496 457.454 300.799 453.493 303.104L427.29 318.346C423.288 320.673 418.741 321.898 414.111 321.898C409.48 321.898 404.933 320.673 400.931 318.346L374.728 303.104C370.765 300.801 367.477 297.498 365.191 293.527C362.906 289.555 361.703 285.054 361.702 280.472Z" fill="#08CF7C"/>
<path d="M414.107 266.616V240.428V266.616ZM414.101 286.984C413.91 286.983 413.721 287.021 413.544 287.094C413.368 287.167 413.208 287.275 413.073 287.41C412.938 287.545 412.832 287.706 412.759 287.882C412.687 288.059 412.65 288.248 412.651 288.439C412.651 288.727 412.737 289.009 412.897 289.248C413.058 289.488 413.285 289.674 413.552 289.784C413.818 289.894 414.111 289.923 414.394 289.866C414.677 289.809 414.936 289.67 415.14 289.466C415.343 289.262 415.481 289.002 415.537 288.719C415.592 288.436 415.562 288.143 415.451 287.878C415.34 287.612 415.152 287.385 414.912 287.226C414.671 287.067 414.389 286.982 414.101 286.984Z" stroke="#F9FAFB" stroke-width="13.094" stroke-linecap="round" stroke-linejoin="round"/>
</svg>
